<svg xmlns="http://www.w3.org/2000/svg" width="68.386" height="70" viewBox="0 0 68.386 70">
    <defs>
        <style>
            .cls-1{fill:#0baedd}.cls-2{fill:#eb117d}.cls-3{fill:#ccc}
        </style>
    </defs>
    <g id="avatar04" transform="translate(-.568)">
        <path id="Path_2776" d="M27.494 69.266c3.687-3.187 6.2-6.878 6.2-10.39 0-9.881-21.371-22.757-30.525-19.15a8.674 8.674 0 0 0-2.6 1.633 35.08 35.08 0 0 0 26.925 27.907z" class="cls-1" data-name="Path 2776"/>
        <path id="Path_2777" d="M48.9 40.894C40.436 44.229 36.792 57.517 37.423 70a35.062 35.062 0 0 0 31.531-26.114c-7.433-3.432-15.047-4.967-20.054-2.992z" class="cls-2" data-name="Path 2777"/>
        <path id="Path_2778" d="M35.04 0a34.877 34.877 0 0 0-18.493 5.272C13.69 18.641 16.679 36 24.7 41.222c10.221 6.658 35.933-5.1 43.3-18.1A35.054 35.054 0 0 0 35.04 0z" class="cls-3" data-name="Path 2778"/>
    </g>
</svg>
