<svg width="31" height="37" viewBox="0 0 31 37" fill="none" xmlns="http://www.w3.org/2000/svg">
<path fill-rule="evenodd" clip-rule="evenodd" d="M27.315 37H3.333C2.44904 37 1.60127 36.6488 0.976215 36.0238C0.351156 35.3987 1.35026e-06 34.551 1.35026e-06 33.667V16.336C-0.000392843 15.898 0.0855266 15.4643 0.252849 15.0596C0.420171 14.6549 0.665616 14.2871 0.975152 13.9773C1.28469 13.6675 1.65225 13.4217 2.05682 13.254C2.4614 13.0863 2.89505 13 3.333 13H3.975V12.346H3.996C3.98194 10.8498 4.2645 9.36556 4.82736 7.97915C5.39021 6.59274 6.22221 5.3316 7.27527 4.2686C8.32834 3.20559 9.5816 2.36178 10.9627 1.78592C12.3437 1.21007 13.8252 0.913574 15.3215 0.913574C16.8178 0.913574 18.2993 1.21007 19.6803 1.78592C21.0614 2.36178 22.3147 3.20559 23.3677 4.2686C24.4208 5.3316 25.2528 6.59274 25.8156 7.97915C26.3785 9.36556 26.6611 10.8498 26.647 12.346C26.647 12.575 26.656 12.788 26.656 12.996H27.314C28.198 12.996 29.0457 13.3471 29.6708 13.9722C30.2958 14.5973 30.647 15.445 30.647 16.329V33.667C30.6471 34.1046 30.561 34.538 30.3937 34.9424C30.2263 35.3468 29.9809 35.7142 29.6714 36.0237C29.362 36.3332 28.9947 36.5788 28.5903 36.7463C28.186 36.9138 27.7526 37 27.315 37ZM15.372 5C13.4269 5 11.5614 5.77248 10.1857 7.1476C8.81005 8.52272 8.0368 10.3879 8.036 12.333H8.022V13H22.674V12.95C22.693 12.757 22.707 12.557 22.707 12.337C22.707 10.3914 21.9343 8.52556 20.5588 7.14966C19.1832 5.77376 17.3175 5.00053 15.372 5ZM26.672 18.35C26.672 17.9965 26.5316 17.6574 26.2816 17.4074C26.0316 17.1574 25.6925 17.017 25.339 17.017H5.317C5.14178 17.017 4.96828 17.0515 4.80642 17.1187C4.64456 17.1858 4.49753 17.2841 4.37372 17.4081C4.24991 17.5321 4.15177 17.6793 4.0849 17.8413C4.01802 18.0032 3.98374 18.1768 3.984 18.352V31.673C3.984 32.0265 4.12444 32.3656 4.37443 32.6156C4.62441 32.8656 4.96347 33.006 5.317 33.006H25.334C25.6875 33.0057 26.0264 32.8652 26.2763 32.6153C26.5262 32.3653 26.6667 32.0264 26.667 31.673L26.672 18.35Z" fill="#074C69"/>
</svg>
